# xmcd
#
# Track frame offsets:
# 150
# 14038
# 30003
# 41701
# 53358
# 65557
# 83053
# 92886
# 106288
# 117202
# 131162
# 142768
# 155979
# 165431
# 176564
# 188262
# 196789
# 213136
# 222748
# 230893
#
# Disc length: 3210 seconds
#
#
# Revision: 0
# Processed by: cddbd v1.5.1PL0 Copyright (c) Steve Scherf et al.
# Submitted via: FreeRIP 2.52 
#
DISCID=0f0c8814
DTITLE=Loretta Lynn - All Time Gospel Favorites
DYEAR=2004
DGENRE=Country
TTITLE0=How Great Thou Art
TTITLE1=Precious Memories
TTITLE2=In the Sweet Bye and Bye
TTITLE3=Amazing Grace
TTITLE4=When the Roll is Called Up Yonder
TTITLE5=What a Friend We Have in Jesus
TTITLE6=Wings of a Dove
TTITLE7=Just a Closer Walk With Thee
TTITLE8=Swing Low, Sweet Chariot
TTITLE9=Peace in the Valley
TTITLE10=I Feel Like Traveling On
TTITLE11=Old Rugged Cross
TTITLE12=Will the Circle Be Unbroken
TTITLE13=In the Garden
TTITLE14=I'd Rather Have Jesus
TTITLE15=I'll Fly Away
TTITLE16=Softly and Tenderly
TTITLE17=Unclouded Day
TTITLE18=Old Time Religion
TTITLE19=If I Coulod Hear My Mother Pray Again
EXTD=
EXTT0=
EXTT1=
EXTT2=
EXTT3=
EXTT4=
EXTT5=
EXTT6=
EXTT7=
EXTT8=
EXTT9=
EXTT10=
EXTT11=
EXTT12=
EXTT13=
EXTT14=
EXTT15=
EXTT16=
EXTT17=
EXTT18=
EXTT19=
PLAYORDER=
